<svg id="visual" viewBox="0 0 900 600" width="900" height="600" xmlns="http://www.w3.org/2000/svg" xmlns:xlink="http://www.w3.org/1999/xlink" version="1.1"><g transform="translate(471.94711556818754 306.4557522951427)"><path d="M138 -247.5C174.7 -217.8 197.3 -172.4 211 -128.5C224.8 -84.7 229.6 -42.3 247 10.1C264.5 62.5 294.6 125 285.5 176.8C276.3 228.6 227.9 269.8 173.8 282.4C119.7 294.9 59.8 279 5.9 268.7C-48 258.5 -96 253.9 -138.9 234.9C-181.7 215.8 -219.5 182.1 -253.3 140.6C-287.1 99 -317.1 49.5 -327.2 -5.8C-337.3 -61.2 -327.6 -122.3 -298.5 -172.1C-269.4 -221.9 -220.9 -260.4 -168 -280.6C-115 -300.9 -57.5 -302.9 -3.4 -297C50.7 -291.1 101.3 -277.2 138 -247.5" fill="#1b3251"></path></g></svg>